<svg id="visual" viewBox="0 0 900 600" width="900" height="600" xmlns="http://www.w3.org/2000/svg" xmlns:xlink="http://www.w3.org/1999/xlink" version="1.1"><path d="M728 600L734 594.2C740 588.3 752 576.7 749 564.8C746 553 728 541 734 529.2C740 517.3 770 505.7 773 494C776 482.3 752 470.7 768.5 459C785 447.3 842 435.7 860 423.8C878 412 857 400 830 388.2C803 376.3 770 364.7 764 353C758 341.3 779 329.7 798.5 317.8C818 306 836 294 837.5 282.2C839 270.3 824 258.7 801.5 247C779 235.3 749 223.7 752 211.8C755 200 791 188 797 176.2C803 164.3 779 152.7 770 141C761 129.3 767 117.7 770 106C773 94.3 773 82.7 786.5 70.8C800 59 827 47 837.5 35.2C848 23.3 842 11.7 839 5.8L836 0L900 0L900 5.8C900 11.7 900 23.3 900 35.2C900 47 900 59 900 70.8C900 82.7 900 94.3 900 106C900 117.7 900 129.3 900 141C900 152.7 900 164.3 900 176.2C900 188 900 200 900 211.8C900 223.7 900 235.3 900 247C900 258.7 900 270.3 900 282.2C900 294 900 306 900 317.8C900 329.7 900 341.3 900 353C900 364.7 900 376.3 900 388.2C900 400 900 412 900 423.8C900 435.7 900 447.3 900 459C900 470.7 900 482.3 900 494C900 505.7 900 517.3 900 529.2C900 541 900 553 900 564.8C900 576.7 900 588.3 900 594.2L900 600Z" fill="#fffa72"></path><path d="M719 600L707 594.2C695 588.3 671 576.7 668 564.8C665 553 683 541 689 529.2C695 517.3 689 505.7 671 494C653 482.3 623 470.7 642.5 459C662 447.3 731 435.7 753.5 423.8C776 412 752 400 729.5 388.2C707 376.3 686 364.7 695 353C704 341.3 743 329.7 753.5 317.8C764 306 746 294 747.5 282.2C749 270.3 770 258.7 765.5 247C761 235.3 731 223.7 735.5 211.8C740 200 779 188 786.5 176.2C794 164.3 770 152.7 761 141C752 129.3 758 117.7 744.5 106C731 94.3 698 82.7 711.5 70.8C725 59 785 47 806 35.2C827 23.3 809 11.7 800 5.8L791 0L837 0L840 5.8C843 11.7 849 23.3 838.5 35.2C828 47 801 59 787.5 70.8C774 82.7 774 94.3 771 106C768 117.7 762 129.3 771 141C780 152.7 804 164.3 798 176.2C792 188 756 200 753 211.8C750 223.7 780 235.3 802.5 247C825 258.7 840 270.3 838.5 282.2C837 294 819 306 799.5 317.8C780 329.7 759 341.3 765 353C771 364.7 804 376.3 831 388.2C858 400 879 412 861 423.8C843 435.7 786 447.3 769.5 459C753 470.7 777 482.3 774 494C771 505.7 741 517.3 735 529.2C729 541 747 553 750 564.8C753 576.7 741 588.3 735 594.2L729 600Z" fill="#fff95a"></path><path d="M512 600L527 594.2C542 588.3 572 576.7 576.5 564.8C581 553 560 541 558.5 529.2C557 517.3 575 505.7 560 494C545 482.3 497 470.7 479 459C461 447.3 473 435.7 495.5 423.8C518 412 551 400 551 388.2C551 376.3 518 364.7 543.5 353C569 341.3 653 329.7 672.5 317.8C692 306 647 294 629 282.2C611 270.3 620 258.7 623 247C626 235.3 623 223.7 627.5 211.8C632 200 644 188 648.5 176.2C653 164.3 650 152.7 623 141C596 129.3 545 117.7 540.5 106C536 94.3 578 82.7 623 70.8C668 59 716 47 689 35.2C662 23.3 560 11.7 509 5.8L458 0L792 0L801 5.8C810 11.7 828 23.3 807 35.2C786 47 726 59 712.5 70.8C699 82.7 732 94.3 745.5 106C759 117.7 753 129.3 762 141C771 152.7 795 164.3 787.5 176.2C780 188 741 200 736.5 211.8C732 223.7 762 235.3 766.5 247C771 258.7 750 270.3 748.5 282.2C747 294 765 306 754.5 317.8C744 329.7 705 341.3 696 353C687 364.7 708 376.3 730.5 388.2C753 400 777 412 754.5 423.8C732 435.7 663 447.3 643.5 459C624 470.7 654 482.3 672 494C690 505.7 696 517.3 690 529.2C684 541 666 553 669 564.8C672 576.7 696 588.3 708 594.2L720 600Z" fill="#fff83d"></path><path d="M323 600L330.5 594.2C338 588.3 353 576.7 381.5 564.8C410 553 452 541 443 529.2C434 517.3 374 505.7 318.5 494C263 482.3 212 470.7 201.5 459C191 447.3 221 435.7 279.5 423.8C338 412 425 400 438.5 388.2C452 376.3 392 364.7 420.5 353C449 341.3 566 329.7 606.5 317.8C647 306 611 294 582.5 282.2C554 270.3 533 258.7 491 247C449 235.3 386 223.7 402.5 211.8C419 200 515 188 518 176.2C521 164.3 431 152.7 395 141C359 129.3 377 117.7 390.5 106C404 94.3 413 82.7 399.5 70.8C386 59 350 47 302 35.2C254 23.3 194 11.7 164 5.8L134 0L459 0L510 5.8C561 11.7 663 23.3 690 35.2C717 47 669 59 624 70.8C579 82.7 537 94.3 541.5 106C546 117.7 597 129.3 624 141C651 152.7 654 164.3 649.5 176.2C645 188 633 200 628.5 211.8C624 223.7 627 235.3 624 247C621 258.7 612 270.3 630 282.2C648 294 693 306 673.5 317.8C654 329.7 570 341.3 544.5 353C519 364.7 552 376.3 552 388.2C552 400 519 412 496.5 423.8C474 435.7 462 447.3 480 459C498 470.7 546 482.3 561 494C576 505.7 558 517.3 559.5 529.2C561 541 582 553 577.5 564.8C573 576.7 543 588.3 528 594.2L513 600Z" fill="#fff700"></path><path d="M242 600L260 594.2C278 588.3 314 576.7 344 564.8C374 553 398 541 372.5 529.2C347 517.3 272 505.7 225.5 494C179 482.3 161 470.7 168.5 459C176 447.3 209 435.7 261.5 423.8C314 412 386 400 401 388.2C416 376.3 374 364.7 402.5 353C431 341.3 530 329.7 551 317.8C572 306 515 294 468.5 282.2C422 270.3 386 258.7 356 247C326 235.3 302 223.7 344 211.8C386 200 494 188 503 176.2C512 164.3 422 152.7 375.5 141C329 129.3 326 117.7 326 106C326 94.3 329 82.7 309.5 70.8C290 59 248 47 209 35.2C170 23.3 134 11.7 116 5.8L98 0L135 0L165 5.8C195 11.7 255 23.3 303 35.2C351 47 387 59 400.5 70.8C414 82.7 405 94.3 391.5 106C378 117.7 360 129.3 396 141C432 152.7 522 164.3 519 176.2C516 188 420 200 403.5 211.8C387 223.7 450 235.3 492 247C534 258.7 555 270.3 583.5 282.2C612 294 648 306 607.5 317.8C567 329.7 450 341.3 421.5 353C393 364.7 453 376.3 439.5 388.2C426 400 339 412 280.5 423.8C222 435.7 192 447.3 202.5 459C213 470.7 264 482.3 319.5 494C375 505.7 435 517.3 444 529.2C453 541 411 553 382.5 564.8C354 576.7 339 588.3 331.5 594.2L324 600Z" fill="#e8e101"></path><path d="M71 600L99.5 594.2C128 588.3 185 576.7 225.5 564.8C266 553 290 541 276.5 529.2C263 517.3 212 505.7 171.5 494C131 482.3 101 470.7 92 459C83 447.3 95 435.7 128 423.8C161 412 215 400 218 388.2C221 376.3 173 364.7 228.5 353C284 341.3 443 329.7 486.5 317.8C530 306 458 294 389 282.2C320 270.3 254 258.7 210.5 247C167 235.3 146 223.7 198.5 211.8C251 200 377 188 399.5 176.2C422 164.3 341 152.7 300.5 141C260 129.3 260 117.7 246.5 106C233 94.3 206 82.7 167 70.8C128 59 77 47 53 35.2C29 23.3 32 11.7 33.5 5.8L35 0L99 0L117 5.8C135 11.7 171 23.3 210 35.2C249 47 291 59 310.5 70.8C330 82.7 327 94.3 327 106C327 117.7 330 129.3 376.5 141C423 152.7 513 164.3 504 176.2C495 188 387 200 345 211.8C303 223.7 327 235.3 357 247C387 258.7 423 270.3 469.5 282.2C516 294 573 306 552 317.8C531 329.7 432 341.3 403.5 353C375 364.7 417 376.3 402 388.2C387 400 315 412 262.5 423.8C210 435.7 177 447.3 169.5 459C162 470.7 180 482.3 226.5 494C273 505.7 348 517.3 373.5 529.2C399 541 375 553 345 564.8C315 576.7 279 588.3 261 594.2L243 600Z" fill="#d0cb02"></path><path d="M0 600L0 594.2C0 588.3 0 576.7 0 564.8C0 553 0 541 0 529.2C0 517.3 0 505.7 0 494C0 482.3 0 470.7 0 459C0 447.3 0 435.7 0 423.8C0 412 0 400 0 388.2C0 376.3 0 364.7 0 353C0 341.3 0 329.7 0 317.8C0 306 0 294 0 282.2C0 270.3 0 258.7 0 247C0 235.3 0 223.7 0 211.8C0 200 0 188 0 176.2C0 164.3 0 152.7 0 141C0 129.3 0 117.7 0 106C0 94.3 0 82.7 0 70.8C0 59 0 47 0 35.2C0 23.3 0 11.7 0 5.8L0 0L36 0L34.5 5.8C33 11.7 30 23.3 54 35.2C78 47 129 59 168 70.8C207 82.7 234 94.3 247.5 106C261 117.7 261 129.3 301.5 141C342 152.7 423 164.3 400.5 176.2C378 188 252 200 199.5 211.8C147 223.7 168 235.3 211.5 247C255 258.7 321 270.3 390 282.2C459 294 531 306 487.5 317.8C444 329.7 285 341.3 229.5 353C174 364.7 222 376.3 219 388.2C216 400 162 412 129 423.8C96 435.7 84 447.3 93 459C102 470.7 132 482.3 172.5 494C213 505.7 264 517.3 277.5 529.2C291 541 267 553 226.5 564.8C186 576.7 129 588.3 100.5 594.2L72 600Z" fill="#bab502"></path></svg>